<svg width="161" height="29" viewBox="0 0 161 29" fill="none" xmlns="http://www.w3.org/2000/svg">
<path d="M0.947514 29H23.8481V22.9917H10.4088L23.8895 4.87017V0.712706H0.98895V6.72099H14.4144L0.947514 24.8425V29ZM34.731 29L36.4299 23.4475H45.8912L47.5901 29H55.6149L46.2227 0.712706H36.0984L26.7061 29H34.731ZM38.1426 17.8398L41.0431 8.3232H41.2641L44.1785 17.8398H38.1426ZM58.3923 29H78.558V22.9917H65.837V17.8674H77.5635V11.8453H65.837V6.72099H78.5994V0.712706H58.3923V29ZM82.5491 29H105.45V22.9917H92.0104L105.491 4.87017V0.712706H82.5905V6.72099H96.0159L82.5491 24.8425V29ZM116.333 29L118.031 23.4475H127.493L129.192 29H137.217L127.824 0.712706H117.7L108.308 29H116.333ZM119.744 17.8398L122.645 8.3232H122.866L125.78 17.8398H119.744ZM139.994 29H160.16V22.9917H147.439V17.8674H159.165V11.8453H147.439V6.72099H160.201V0.712706H139.994V29Z" fill="#FFE500"/>
</svg>
